#!OML:ASF I:\golf\golf\golf 2\Subject 1\2002-09-07\Subject1.ASF
:FULLY-SPECIFIED
:DEGREES
480
root -5.71116 18.2421 -2.3126 -165.135 31.9362 -173.801
lowerback -4.63121 7.73223 2.12044
upperback -3.28778 10.6616 4.06848
thorax -1.24246 5.51569 3.35432
lowerneck -18.5954 -1.384 3.27789
upperneck 11.5757 -2.58194 -0.738527
head 6.50334 -1.1544 -1.0441
rclavicle -1.05977e-013 -6.83819e-014
rhumerus -6.75935 44.5413 -102.393
rradius 40.4214
rwrist -42.1799
rhand -17.9123 0.766821
rfingers 7.12502
rthumb 8.35501 -29.0479
lclavicle -1.05977e-013 -6.83819e-014
lhumerus -19.9651 -44.0403 101.479
lradius 54.9687
lwrist 59.9501
lhand -21.8399 41.3833
lfingers 7.12502
lthumb -175.437 -108.686
rfemur 1.62951 -3.46801 14.7687
rtibia 26.521
rfoot 15.6422 -19.8803
rtoes 7.32107
lfemur -22.9823 -12.5489 -11.532
ltibia 21.5721
lfoot -6.1784 -33.7787
ltoes -0.0708023
481
root -5.71241 18.2546 -2.29645 -164.758 32.3007 -173.821
lowerback -4.86198 7.63884 1.88657
upperback -3.46753 10.5543 4.0454
thorax -1.33396 5.47244 3.46878
lowerneck -18.6109 -1.28244 3.32362
upperneck 11.7517 -2.4705 -0.662353
head 6.56601 -1.08875 -1.01682
rclavicle -1.02275e-013 -2.22639e-014
rhumerus -8.03294 45.6256 -103.146
rradius 40.8431
rwrist -42.9663
rhand -19.6866 -0.178351
rfingers 7.12502
rthumb 6.64241 -30.0542
lclavicle -1.02275e-013 -2.22639e-014
lhumerus -21.4547 -44.6777 102.685
lradius 55.4324
lwrist 60.074
lhand -24.2248 42.347
lfingers 7.12502
lthumb -177.74 -107.685
rfemur 0.904122 -3.47677 14.7236
rtibia 26.9009
rfoot 15.1747 -20.1994
rtoes 8.56315
lfemur -23.151 -12.2512 -11.507
ltibia 21.2228
lfoot -6.57515 -33.6264
ltoes -1.50924
482
root -5.71525 18.2671 -2.27068 -164.276 32.4597 -173.81
lowerback -5.19586 7.48627 1.68022
upperback -3.60997 10.3623 4.04185
thorax -1.32374 5.38735 3.60569
lowerneck -18.6738 -1.17411 3.4153
upperneck 11.8319 -2.35927 -0.605386
head 6.60466 -1.02389 -1.0025
rclavicle -1.72197e-014 -2.22639e-014
rhumerus -9.14734 46.7268 -103.764
rradius 41.3125
rwrist -43.6445
rhand -21.3836 -1.40038
rfingers 7.12502
rthumb 5.00396 -31.3213
lclavicle -1.72197e-014 -2.22639e-014
lhumerus -22.568 -45.2595 103.732
lradius 55.667
lwrist 60.0348
lhand -32.304 43.9682
lfingers 7.12502
lthumb -185.542 -106.124
rfemur -0.00904462 -3.59413 14.8027
rtibia 27.4641
rfoot 14.1377 -21.0256
rtoes 12.19
lfemur -23.3899 -11.9156 -11.4342
ltibia 20.6527
lfoot -7.04655 -33.6467
ltoes -3.507
483
root -5.71746 18.2564 -2.25673 -164.298 33.0258 -173.782
lowerback -5.16307 7.44723 1.55155
upperback -3.61466 10.313 4.05451
thorax -1.36839 5.36406 3.67881
lowerneck -18.5423 -1.06978 3.52548
upperneck 11.8821 -2.25655 -0.504365
head 6.6019 -0.958562 -0.975573
rclavicle 6.03063e-014 5.56597e-014
rhumerus -10.4315 47.596 -104.686
rradius 41.5364
rwrist -44.2941
rhand -22.8684 -2.05475
rfingers 7.12502
rthumb 3.5702 -32.0046
lclavicle 6.03063e-014 5.56597e-014
lhumerus -23.7136 -45.5453 104.787
lradius 55.7208
lwrist 60.3447
lhand -33.8758 45.1359
lfingers 7.12502
lthumb -187.06 -105.002
rfemur -0.250033 -3.47212 14.6585
rtibia 27.7627
rfoot 13.8103 -21.2212
rtoes 13.474
lfemur -23.2471 -11.6684 -11.5198
ltibia 20.423
lfoot -5.34998 -33.6942
ltoes 0.74444
